<?xml version="1.0" standalone="no"?><!DOCTYPE svg PUBLIC "-//W3C//DTD SVG 1.1//EN" "http://www.w3.org/Graphics/SVG/1.1/DTD/svg11.dtd"><svg t="1487573381259" class="icon" style="" viewBox="0 0 1025 1024" version="1.1" xmlns="http://www.w3.org/2000/svg" p-id="4974" xmlns:xlink="http://www.w3.org/1999/xlink" width="128.125" height="128"><defs><style type="text/css"></style></defs><path d="M1024.560772 380.943129c0-52.385091-42.397622-95.074356-94.479815-95.074356L772.640182 285.868773 772.640182 124.836193c0-51.936883-42.497906-94.137007-94.78169-94.137007L346.70228 30.699186c-52.283784 0-94.78169 42.201148-94.78169 94.137007l0 161.03258L94.359065 285.868773c-52.037167 0-94.359065 42.689265-94.359065 95.074356l0 511.225357c0 52.379974 42.321898 95.024214 94.359065 95.024214l237.808174 0c27.323299 0 49.503461-22.181185 49.503461-49.432853l0-58.035788 262.180258 0 0 58.035788c0 27.252691 22.180162 49.432853 49.503461 49.432853l236.725516 0c52.082192 0 94.479815-42.644239 94.479815-95.024214L1024.559748 380.943129zM978.205001 892.168486c0 26.804483-21.591761 48.64286-48.124044 48.64286L690.278359 940.811346l0-65.908082c0-22.921036-18.640546-41.611723-41.535999-41.611723L376.921535 833.29154c-22.991644 0-41.682331 18.690688-41.682331 41.611723l0 65.908082L94.359065 940.811346c-26.461675 0-48.003294-21.838378-48.003294-48.64286L46.355771 380.943129c0-26.804483 21.541619-48.64286 48.003294-48.64286l203.994044 0L298.353109 124.836193c0-26.361391 21.692045-47.755654 48.350195-47.755654l331.155189 0c26.65815 0 48.350195 21.395286 48.350195 47.755654l0 207.464075 203.872271 0c26.532283 0 48.124044 21.838378 48.124044 48.64286L978.205001 892.168486z" p-id="4975" fill="#13ABF0"></path><path d="M544.17377 233.730299l0-79.431074-63.963801-0.936325-0.861624 80.367399c0 3.640923-2.996241 6.643304-6.562463 6.643304l-80.322373 0-0.906649 63.888076 81.229023 0.886183c3.566222 0 6.562463 2.901073 6.562463 6.593162l0 78.645175 63.86761 0.932232c0.589424 0 0.956791-0.443092 0.956791-0.932232l0-78.645175c0-3.692089 2.951215-6.593162 6.567579-6.593162l77.788667 0 1.032516-63.938218-78.821183-0.836041C547.124985 240.373603 544.17377 237.372246 544.17377 233.730299z" p-id="4976" fill="#13ABF0"></path><path d="M293.335838 486.442928 170.44495 486.442928c-8.18952 0-14.827707 6.593162-14.827707 14.852266l0 57.249889c0 8.265244 6.638187 14.903431 14.827707 14.903431l122.890888 0c8.214079 0 14.953573-6.638187 14.953573-14.903431l0-57.249889C308.289412 493.035066 301.55094 486.442928 293.335838 486.442928z" p-id="4977" fill="#13ABF0"></path><path d="M575.530942 486.442928 452.716802 486.442928c-8.260128 0-14.903431 6.593162-14.903431 14.852266l0 57.249889c0 8.265244 6.643304 14.903431 14.903431 14.903431L575.530942 573.448514c8.18952 0 14.903431-6.638187 14.903431-14.903431l0-57.249889C590.434373 493.035066 583.720462 486.442928 575.530942 486.442928z" p-id="4978" fill="#13ABF0"></path><path d="M857.852936 486.442928 734.89144 486.442928c-8.265244 0-14.877849 6.593162-14.877849 14.852266l0 57.249889c0 8.265244 6.612605 14.903431 14.877849 14.903431l122.961496 0c8.138354 0 14.751982-6.638187 14.751982-14.903431l0-57.249889C872.604918 493.035066 865.99129 486.442928 857.852936 486.442928z" p-id="4979" fill="#13ABF0"></path><path d="M293.335838 644.175345 170.44495 644.175345c-8.18952 0-14.827707 6.693446-14.827707 14.857383l0 57.300031c0 8.163937 6.638187 14.751982 14.827707 14.751982l122.890888 0c8.214079 0 14.953573-6.588045 14.953573-14.751982l0-57.300031C308.289412 650.868791 301.55094 644.175345 293.335838 644.175345z" p-id="4980" fill="#13ABF0"></path><path d="M575.530942 644.175345 452.716802 644.175345c-8.260128 0-14.903431 6.693446-14.903431 14.857383l0 57.300031c0 8.163937 6.643304 14.751982 14.903431 14.751982L575.530942 731.084741c8.18952 0 14.903431-6.588045 14.903431-14.751982l0-57.300031C590.434373 650.868791 583.720462 644.175345 575.530942 644.175345z" p-id="4981" fill="#13ABF0"></path><path d="M857.852936 644.175345 734.89144 644.175345c-8.265244 0-14.877849 6.693446-14.877849 14.857383l0 57.300031c0 8.163937 6.612605 14.751982 14.877849 14.751982l122.961496 0c8.138354 0 14.751982-6.588045 14.751982-14.751982l0-57.300031C872.604918 650.868791 865.99129 644.175345 857.852936 644.175345z" p-id="4982" fill="#13ABF0"></path></svg>