<?xml version="1.0" standalone="no"?><!DOCTYPE svg PUBLIC "-//W3C//DTD SVG 1.1//EN" "http://www.w3.org/Graphics/SVG/1.1/DTD/svg11.dtd"><svg t="1487675848109" class="icon" style="" viewBox="0 0 1056 1024" version="1.1" xmlns="http://www.w3.org/2000/svg" p-id="5822" xmlns:xlink="http://www.w3.org/1999/xlink" width="132" height="128"><defs><style type="text/css"></style></defs><path d="M403.748571 207.725714h43.885715v43.885715c0 8.777143 5.851429 14.628571 14.628571 14.628571h20.48c8.777143 0 14.628571-5.851429 14.628572-14.628571V207.725714h43.885714c8.777143 0 14.628571-5.851429 14.628571-14.628571v-20.48c0-8.777143-5.851429-14.628571-14.628571-14.628572h-43.885714v-43.885714c0-8.777143-5.851429-14.628571-14.628572-14.628571h-20.48c-8.777143 0-14.628571 5.851429-14.628571 14.628571v43.885714h-43.885715c-8.777143 0-14.628571 5.851429-14.628571 14.628572v20.48c0 8.777143 5.851429 14.628571 14.628571 14.628571" fill="#ffffff" p-id="5823"></path><path d="M690.468571 97.952914v190.171429h-433.005714v-190.171429h433.005714z m-111.177142 374.491429l-14.628572 5.851428c-29.257143 11.702857-58.514286 20.48-90.697143 20.48-58.514286 0-111.177143-20.48-152.137143-58.514285-32.182857-29.257143-52.662857-70.217143-61.44-111.177143h427.154286c-5.851429 40.96-26.331429 78.994286-61.44 111.177143-11.702857 11.702857-29.257143 23.405714-46.811428 32.182857z m435.931428 292.571428c-23.405714-55.588571-58.514286-108.251429-102.4-152.137142s-93.622857-78.994286-149.211428-102.4c-20.48-8.777143-43.885714-17.554286-67.291429-23.405715 23.405714-11.702857 43.885714-26.331429 64.365714-43.885714 49.737143-46.811429 76.068571-108.251429 76.068572-172.617143V33.5872c0-17.554286-14.628571-32.182857-29.257143-32.182857H351.085714c-17.554286 0-29.257143 14.628571-29.257143 32.182857v11.702857h40.96v-2.925714h433.005715v242.834286c-5.851429 46.811429-26.331429 90.697143-61.44 125.805714-17.554286 17.554286-38.034286 29.257143-58.514286 40.96 38.034286-43.885714 58.514286-96.548571 58.514286-155.062857v-210.651429c0-17.554286-14.628571-32.182857-29.257143-32.182857h-456.411429c-17.554286 0-29.257143 14.628571-29.257143 32.182857v210.651429c0 64.365714 26.331429 125.805714 76.068572 172.617143 17.554286 17.554286 40.96 32.182857 64.365714 43.885714-23.405714 5.851429-43.885714 14.628571-67.291428 23.405714-55.588571 23.405714-108.251429 58.514286-149.211429 102.4-43.885714 43.885714-78.994286 93.622857-102.4 152.137143-23.405714 58.514286-38.034286 119.954286-38.034286 184.32 0 11.702857 8.777143 20.48 20.48 20.48 11.702857 0 20.48-8.777143 20.48-20.48 0-58.514286 11.702857-117.028571 35.108572-169.691429 20.48-52.662857 52.662857-99.474286 93.622857-137.508571 40.96-40.96 84.845714-70.217143 137.508571-93.622857 52.662857-23.405714 108.251429-35.108571 166.765715-35.108572s114.102857 11.702857 166.765714 35.108572c52.662857 20.48 96.548571 52.662857 137.508571 93.622857 40.96 40.96 70.217143 87.771429 93.622857 137.508571 23.405714 52.662857 35.108571 111.177143 35.108572 169.691429 0 11.702857 8.777143 20.48 20.48 20.48s20.48-8.777143 20.48-20.48c0-64.365714-11.702857-125.805714-38.034286-184.32-23.405714-55.588571-58.514286-108.251429-102.4-152.137143s-93.622857-78.994286-149.211428-102.4c-20.48-8.777143-38.034286-14.628571-58.514286-20.48 49.737143 2.925714 99.474286 14.628571 146.285714 32.182857 52.662857 20.48 96.548571 52.662857 137.508572 93.622857 40.96 40.96 70.217143 87.771429 93.622857 137.508572 23.405714 52.662857 35.108571 111.177143 35.108571 169.691428 0 11.702857 8.777143 20.48 20.48 20.48s20.48-8.777143 20.48-20.48c-2.925714-64.365714-17.554286-125.805714-40.96-184.32z" fill="#ffffff" p-id="5824"></path></svg>