<?xml version="1.0" standalone="no"?><!DOCTYPE svg PUBLIC "-//W3C//DTD SVG 1.1//EN" "http://www.w3.org/Graphics/SVG/1.1/DTD/svg11.dtd"><svg t="1487675893911" class="icon" style="" viewBox="0 0 1025 1024" version="1.1" xmlns="http://www.w3.org/2000/svg" p-id="6536" xmlns:xlink="http://www.w3.org/1999/xlink" width="128.125" height="128"><defs><style type="text/css"></style></defs><path d="M307.24096 1022.64832l597.36064 0c37.6832 0 68.23936-30.47424 68.23936-68.28032l0-85.44256c28.18048 0 51.2-22.85568 51.2-51.15904l0-14.49984L1024.04096 408.1664c0-37.64224-30.63808-68.15744-68.32128-68.15744L688.128 340.00896c2.048-61.68576-1.39264-183.21408-52.34688-255.01696-45.17888-61.52192-65.04448-68.85376-93.92128-79.54432-35.26656-13.14816-86.67136 6.63552-86.67136 44.31872 0 0 17.6128 131.11296-29.53216 211.23072C405.0944 295.85408 380.06784 321.78176 358.31808 340.00896l-289.9968 0c-37.6832 0-68.23936 30.5152-68.23936 68.15744L0.08192 954.368c0 37.80608 30.55616 68.28032 68.23936 68.28032L307.24096 1022.64832 307.24096 1022.64832 307.24096 1022.64832zM307.24096 404.0704l0 554.31168-183.9104 0c-32.64512 0-59.10528-24.41216-59.10528-54.64064L64.22528 458.71104c0-30.14656 26.46016-54.64064 59.10528-54.64064L307.24096 404.0704 307.24096 404.0704 307.24096 404.0704zM772.17792 544.72704c0 18.8416 15.27808 34.16064 34.16064 34.16064l153.6 0 0 85.36064-153.6 0c-18.80064 0-34.16064 15.27808-34.16064 34.16064 0 18.75968 15.27808 34.16064 34.16064 34.16064l153.6 0 0 68.28032-153.6 0c-18.80064 0-34.16064 15.19616-34.16064 33.95584 0 18.88256 15.27808 34.16064 34.16064 34.16064l102.4 0 0 34.89792c0 30.22848-30.55616 54.64064-63.2832 54.64064L380.60032 958.50496 380.60032 403.90656c64.47104-42.47552 82.86208-75.20256 90.97216-87.40864 50.09408-75.776 51.2-203.776 51.2-203.776 0-37.72416 8.97024-51.97824 30.96576-24.65792 0 0 57.30304 62.58688 57.30304 247.72608-0.69632 12.82048-0.08192 34.89792 6.02112 46.94016 8.06912 15.48288 16.384 21.34016 54.0672 21.34016l229.45792 0c32.768 0 59.10528 24.53504 59.10528 54.64064l0 51.93728-153.6 0C787.456 510.5664 772.17792 525.96736 772.17792 544.72704L772.17792 544.72704 772.17792 544.72704 772.17792 544.72704zM153.64096 817.72544c0 18.96448 15.27808 34.2016 34.07872 34.2016 18.88256 0 34.16064-15.23712 34.16064-34.2016 0-18.80064-15.27808-34.03776-34.16064-34.03776C168.96 783.72864 153.64096 798.9248 153.64096 817.72544L153.64096 817.72544z" p-id="6537" fill="#ffce7e"></path></svg>