<?xml version="1.0" standalone="no"?><!DOCTYPE svg PUBLIC "-//W3C//DTD SVG 1.1//EN" "http://www.w3.org/Graphics/SVG/1.1/DTD/svg11.dtd"><svg t="1487675812673" class="icon" style="" viewBox="0 0 1024 1024" version="1.1" xmlns="http://www.w3.org/2000/svg" p-id="5266" xmlns:xlink="http://www.w3.org/1999/xlink" width="128" height="128"><defs><style type="text/css"></style></defs><path d="M484.10365 482.302631l0.461511 143.846152L344.625992 626.148783c-29.388331 0-29.464055 36.349883-0.076748 36.349883l139.554406 0L484.10365 803.298436c0 29.67895 38.626739 30.636764 38.626739 0.957815L522.730389 664.315034l139.906423-1.815345c29.387307 0 29.420053-36.349883 0.032746-36.349883L522.731412 626.149806 522.731412 486.210637C522.731412 456.538851 484.10365 452.631868 484.10365 482.302631zM884.226606 481.384725 510.057765 210.649628 134.36829 482.511385c-3.698229 3.076058-5.596462 6.987135-5.744841 11.30958l-0.039909 0 0 388.907521c0 40.955784 32.95353 74.188676 73.587995 74.188676l615.663988 0c40.624233 0 73.474408-33.232892 73.474408-74.188676L891.309932 496.098845c0.057305-0.610914 0.115634-1.186012 0.115634-1.731434C891.425565 489.307162 888.779296 484.71354 884.226606 481.384725zM853.496721 867.864964c-0.010233 32.04074-3.693112 50.885947-76.330456 50.885947L242.85205 918.750911c-60.71071 0-74.627674-6.803963-76.330456-76.330456L166.521594 511.655146 510.009669 257.217223l343.487052 254.4369L853.496721 867.864964zM929.827177 384.436696c-6.252401-4.946662-420.953378-318.979892-419.769412-318.046636L90.190115 384.436696c-24.426319 20.302395 1.879813 52.845579 25.443485 38.165228L510.009669 130.000819l394.374022 292.601104C924.212296 435.794387 959.115224 407.594115 929.827177 384.436696z" p-id="5267" fill="#ffffff"></path></svg>